<svg width="52" height="52" viewBox="0 0 52 52" fill="none" xmlns="http://www.w3.org/2000/svg">
<circle cx="26.0001" cy="26" r="26" fill="#3485FF"/>
<path d="M34.0001 35V33C34.0001 31.9391 33.5787 30.9217 32.8285 30.1716C32.0784 29.4214 31.061 29 30.0001 29H22.0001C20.9393 29 19.9218 29.4214 19.1717 30.1716C18.4215 30.9217 18.0001 31.9391 18.0001 33V35" stroke="#FAFAFA" stroke-width="2" stroke-linecap="round" stroke-linejoin="round"/>
<path d="M26.0001 25C28.2093 25 30.0001 23.2091 30.0001 21C30.0001 18.7909 28.2093 17 26.0001 17C23.791 17 22.0001 18.7909 22.0001 21C22.0001 23.2091 23.791 25 26.0001 25Z" stroke="#FAFAFA" stroke-width="2" stroke-linecap="round" stroke-linejoin="round"/>
</svg>
